<?xml version="1.0" encoding="UTF-8"?>
<svg xmlns="http://www.w3.org/2000/svg" xmlns:xlink="http://www.w3.org/1999/xlink" viewBox="0 0 792 612">
  <defs>
    <style>
      .cls-1 {
        opacity: .33;
      }

      .cls-2 {
        fill: url(#Degradado_sin_nombre_49);
      }

      .cls-3 {
        fill: #0d9dd9;
      }

      .cls-4 {
        fill: #fff;
      }

      .cls-5 {
        fill: #31dfde;
      }

      .cls-6 {
        fill: none;
      }

      .cls-7 {
        fill: url(#Degradado_sin_nombre_50);
      }

      .cls-7, .cls-8, .cls-9, .cls-10 {
        mix-blend-mode: multiply;
      }

      .cls-11 {
        clip-path: url(#clippath-1);
      }

      .cls-12 {
        isolation: isolate;
      }

      .cls-13 {
        clip-path: url(#clippath-3);
      }

      .cls-8 {
        fill: url(#Degradado_sin_nombre_15);
      }

      .cls-9 {
        fill: url(#Degradado_sin_nombre_27);
      }

      .cls-14 {
        fill: url(#Degradado_sin_nombre_27-2);
      }

      .cls-10 {
        fill: #0b752b;
      }

      .cls-15 {
        fill: #484848;
      }

      .cls-16 {
        fill: url(#Degradado_sin_nombre_66);
      }

      .cls-17 {
        clip-path: url(#clippath-2);
      }

      .cls-18 {
        fill: #7dc838;
      }

      .cls-19 {
        clip-path: url(#clippath);
      }
    </style>
    <clipPath id="clippath">
      <path class="cls-6" d="M380.69,117.4c-5.4,0-54.94,32.01-1.45,96.18,7.5,8.87,21.35,19.95,60.75,40.13,52.42,26.76,53.86,67.61,53.86,67.61,0,0,7.23,28.2-25.31,56.41,0,0,91.84-42.67,39.41-131.07-31.46-33.45-44.83-31.64-105.94-65.63-34.35-22.42-21.53-59.29-21.33-63.64Z"/>
    </clipPath>
    <linearGradient id="Degradado_sin_nombre_49" data-name="Degradado sin nombre 49" x1="378.64" y1="193.67" x2="494.9" y2="319.76" gradientUnits="userSpaceOnUse">
      <stop offset=".09" stop-color="#094b27"/>
      <stop offset=".28" stop-color="#3a9d43"/>
      <stop offset=".49" stop-color="#75c445"/>
      <stop offset=".68" stop-color="#75c445"/>
      <stop offset=".91" stop-color="#45a443"/>
    </linearGradient>
    <clipPath id="clippath-1">
      <path class="cls-6" d="M518.97,111.12l-40.13,51.7s-58.21-.72-68.34,0c-13.17-.44-31.29,1.73-49.22,22.78-9.42-22.35-14.78-65.08,40.18-74.48h117.51Z"/>
    </clipPath>
    <linearGradient id="Degradado_sin_nombre_27" data-name="Degradado sin nombre 27" x1="355.29" y1="148.24" x2="518.97" y2="148.24" gradientUnits="userSpaceOnUse">
      <stop offset="0" stop-color="#051f40"/>
      <stop offset=".25" stop-color="#155698"/>
      <stop offset=".58" stop-color="#0392be"/>
    </linearGradient>
    <clipPath id="clippath-2">
      <path class="cls-6" d="M375.99,120.83c-14.46,3.62-95.09,58.94-30.37,135.59,30.37,27.12,60.87,36.43,86.01,49.08,16.02,9.34,63.17,44.74,31.96,75.12,30.88-6.63,55.25-76.95-10.87-114.57-36.93-17.88-59.25-24.93-72.76-43.47-8.33-11.44-46.63-50.76-3.96-101.74Z"/>
    </clipPath>
    <linearGradient id="Degradado_sin_nombre_50" data-name="Degradado sin nombre 50" x1="319.3" y1="250.14" x2="495.82" y2="250.14" gradientUnits="userSpaceOnUse">
      <stop offset=".09" stop-color="#45a443"/>
      <stop offset=".32" stop-color="#75c445"/>
      <stop offset=".51" stop-color="#75c445"/>
      <stop offset=".72" stop-color="#3a9d43"/>
      <stop offset=".91" stop-color="#094b27"/>
    </linearGradient>
    <clipPath id="clippath-3">
      <path class="cls-6" d="M322.02,386.48l39.05-51.34s65.06,1.24,75.84-.63c18.71-3.25,46.75-22.78,52.17-30.37,9.56,19.25,9.97,61.56-25.49,75.74-21.76,8.6-141.57,6.61-141.57,6.61Z"/>
    </clipPath>
    <linearGradient id="Degradado_sin_nombre_15" data-name="Degradado sin nombre 15" x1="322.02" y1="345.4" x2="494.6" y2="345.4" gradientUnits="userSpaceOnUse">
      <stop offset=".42" stop-color="#31dfde"/>
      <stop offset=".75" stop-color="#1da3a2"/>
      <stop offset="1" stop-color="#1da3a2"/>
    </linearGradient>
    <linearGradient id="Degradado_sin_nombre_27-2" data-name="Degradado sin nombre 27" x1="456.09" y1="439.05" x2="491.92" y2="439.05" xlink:href="#Degradado_sin_nombre_27"/>
    <linearGradient id="Degradado_sin_nombre_66" data-name="Degradado sin nombre 66" x1="621.71" y1="501.58" x2="621.71" y2="458.73" gradientUnits="userSpaceOnUse">
      <stop offset="0" stop-color="#051f40"/>
      <stop offset=".18" stop-color="#155698"/>
      <stop offset=".44" stop-color="#0392be"/>
      <stop offset=".78" stop-color="#0d9dd9"/>
    </linearGradient>
  </defs>
  <g class="cls-12">
    <g id="Capa_1">
      <g>
        <g>
          <g class="cls-19">
            <path class="cls-2" d="M380.69,117.76c-5.4,0-54.94,32.01-1.45,96.18,7.5,8.87,21.35,19.95,60.75,40.13,52.42,26.76,53.86,67.61,53.86,67.61,0,0,7.23,28.2-25.31,56.41,0,0,91.84-42.67,39.41-131.07-31.46-33.45-44.83-31.64-105.94-65.63-34.35-22.42-21.53-59.29-21.33-63.64Z"/>
            <g class="cls-1">
              <path class="cls-4" d="M419.63,200.09c.91.61,2.11.47,2.87-.26l23.07,15.31,1.04,7.54,11.63,7.72,2.02,8.39,6,3.99,6.88-2.48,15.4,10.22c-.38.98-.04,2.14.87,2.74,1.06.7,2.49.41,3.19-.64s.41-2.49-.64-3.19c-.91-.61-2.11-.47-2.87.26l-15.81-10.5-6.88,2.48-5.26-3.49-2.02-8.39-11.58-7.69-1.04-7.54-23.44-15.56c.38-.98.04-2.14-.87-2.74-1.06-.7-2.49-.41-3.19.64s-.41,2.49.64,3.19ZM491.4,250.26c.6.4.76,1.21.36,1.81s-1.21.76-1.81.36-.76-1.21-.36-1.81,1.21-.76,1.81-.37ZM421.62,197.09c.6.4.76,1.21.36,1.81s-1.21.76-1.81.36-.76-1.21-.36-1.81,1.21-.76,1.81-.37Z"/>
              <path class="cls-4" d="M434.65,195.36c.91.61,2.11.47,2.87-.26l9.27,6.15,1.5,4.72,26.59,17.65,4.56-.7,25.88,17.18.78,6.95c-.53.14-1.01.46-1.33.95-.7,1.06-.41,2.49.64,3.19s2.49.41,3.19-.64.41-2.49-.64-3.19c-.27-.18-.56-.29-.86-.35l-.84-7.48-26.59-17.65-4.56.7-25.97-17.24-1.5-4.72-9.56-6.35c.38-.98.04-2.14-.87-2.74-1.06-.7-2.49-.41-3.19.64s-.41,2.49.64,3.19ZM507.4,248.19c.6.4.76,1.21.36,1.81s-1.21.76-1.81.36-.76-1.21-.36-1.81,1.21-.76,1.81-.36ZM436.65,192.36c.6.4.76,1.21.36,1.81s-1.21.76-1.81.37-.76-1.21-.36-1.81,1.21-.76,1.81-.37Z"/>
              <path class="cls-4" d="M472.64,231.92l-18.7-12.41c.38-.98.04-2.14-.87-2.74-1.06-.7-2.49-.41-3.19.64s-.41,2.49.64,3.19c.91.61,2.11.47,2.87-.26l18.7,12.41c-.38.98-.04,2.14.87,2.74,1.06.7,2.49.41,3.19-.64s.41-2.49-.64-3.19c-.91-.61-2.11-.47-2.87.26ZM451.08,219.77c-.6-.4-.76-1.21-.36-1.81s1.21-.76,1.81-.37.76,1.21.36,1.81-1.21.76-1.81.36ZM475.32,234.3c-.4.6-1.21.76-1.81.36s-.76-1.21-.36-1.81,1.21-.76,1.81-.37.76,1.21.36,1.81Z"/>
              <path class="cls-4" d="M503.89,252.67l-20.21-13.42-.72-6.72-21.67-14.38c.38-.98.04-2.14-.87-2.74-1.06-.7-2.49-.41-3.19.64s-.41,2.49.64,3.19c.91.61,2.11.47,2.87-.26l21.28,14.12.72,6.72,20.6,13.67c-.38.98-.04,2.14.87,2.74,1.06.7,2.49.41,3.19-.64s.41-2.49-.64-3.19c-.91-.61-2.11-.47-2.87.26ZM458.43,218.41c-.6-.4-.76-1.21-.36-1.81s1.21-.76,1.81-.36.76,1.21.36,1.81-1.21.76-1.81.37ZM506.57,255.05c-.4.6-1.21.76-1.81.36s-.76-1.21-.36-1.81,1.21-.76,1.81-.36.76,1.21.36,1.81Z"/>
              <path class="cls-4" d="M399.39,200.55c.91.61,2.11.47,2.87-.26l16.45,10.92,7.58-2.02,12.72,8.45c-.38.98-.04,2.14.87,2.74,1.06.7,2.49.41,3.19-.64s.41-2.49-.64-3.19c-.91-.61-2.11-.47-2.87.26l-13.1-8.7-7.58,2.02-16.08-10.67c.38-.98.04-2.14-.87-2.74-1.06-.7-2.49-.41-3.19.64s-.41,2.49.64,3.19ZM441.88,217.38c.6.4.76,1.21.36,1.81s-1.21.76-1.81.37-.76-1.21-.36-1.81,1.21-.76,1.81-.36ZM401.38,197.55c.6.4.76,1.21.36,1.81s-1.21.76-1.81.37-.76-1.21-.36-1.81,1.21-.76,1.81-.36Z"/>
              <path class="cls-4" d="M450.55,255.72l-1.74-6.79-14.19-9.42c.38-.98.04-2.14-.87-2.74-1.06-.7-2.49-.41-3.19.64s-.41,2.49.64,3.19c.91.61,2.11.47,2.87-.26l13.87,9.21,1.74,6.79,17.79,11.81,13.47-1.8c.16.43.46.82.88,1.1,1.06.7,2.49.41,3.19-.64s.41-2.49-.64-3.19-2.49-.41-3.19.64c-.23.34-.35.72-.38,1.1l-13.08,1.75-17.16-11.39ZM431.76,239.77c-.6-.4-.76-1.21-.36-1.81s1.21-.76,1.81-.36.76,1.21.36,1.81-1.21.76-1.81.36ZM483.8,264.45c.6.4.76,1.21.36,1.81s-1.21.76-1.81.36-.76-1.21-.36-1.81,1.21-.76,1.81-.37Z"/>
              <path class="cls-4" d="M481.58,268.86c-.7,1.06-.41,2.49.64,3.19.91.61,2.11.47,2.87-.26l9.22,6.12c-.38.98-.04,2.14.87,2.74,1.06.7,2.49.41,3.19-.64s.41-2.49-.64-3.19c-.91-.61-2.11-.47-2.87.26l-9.22-6.12c.38-.98.04-2.14-.87-2.74-1.06-.7-2.49-.41-3.19.64ZM497.17,277.65c.6.4.76,1.21.36,1.81s-1.21.76-1.81.36-.76-1.21-.36-1.81,1.21-.76,1.81-.37ZM484.22,269.05c.6.4.76,1.21.36,1.81s-1.21.76-1.81.36-.76-1.21-.36-1.81,1.21-.76,1.81-.36Z"/>
              <path class="cls-4" d="M492.08,258.73l-16.1-10.69c.38-.98.04-2.14-.87-2.74-1.06-.7-2.49-.41-3.19.64s-.41,2.49.64,3.19c.91.61,2.11.47,2.87-.26l15.74,10.45,1.41,8.79,30.19,20.04,1.43,5.28,8.51,5.65c-.38.98-.04,2.14.87,2.74,1.06.7,2.49.41,3.19-.64s.41-2.49-.64-3.19c-.91-.61-2.11-.47-2.87.26l-8.2-5.44-1.43-5.28-30.14-20.01-1.41-8.79ZM473.12,248.3c-.6-.4-.76-1.21-.36-1.81s1.21-.76,1.81-.36.76,1.21.36,1.81-1.21.76-1.81.36ZM535.58,298.83c.6.4.76,1.21.36,1.81s-1.21.76-1.81.36-.76-1.21-.36-1.81,1.21-.76,1.81-.37Z"/>
              <path class="cls-4" d="M454.18,233.57l-19.4-12.88c.38-.98.04-2.14-.87-2.74-1.06-.7-2.49-.41-3.19.64s-.41,2.49.64,3.19c.91.61,2.11.47,2.87-.26l19.08,12.66,2.91,12,18.63,12.37c-.36.98-.02,2.11.89,2.71,1.06.7,2.49.41,3.19-.64s.41-2.49-.64-3.19c-.92-.61-2.13-.47-2.89.28l-18.29-12.14-2.91-12ZM431.92,220.95c-.6-.4-.76-1.21-.36-1.81s1.21-.76,1.81-.36.76,1.21.36,1.81-1.21.76-1.81.36ZM477.73,258.26c.6.4.76,1.21.36,1.81s-1.21.76-1.81.37-.76-1.21-.36-1.81,1.21-.76,1.81-.36Z"/>
              <path class="cls-4" d="M496.48,255.48c.43-.17.81-.46,1.09-.87.7-1.06.41-2.49-.64-3.19s-2.49-.41-3.19.64c-.7,1.06-.41,2.49.64,3.19.34.23.73.35,1.11.38l1.69,9.5,14.58,9.68c-.59,1.04-.28,2.38.73,3.05s2.49.41,3.19-.64.41-2.49-.64-3.19c-.81-.54-1.84-.49-2.59.04l-14.35-9.53-1.61-9.05ZM494.94,254.42c-.6-.4-.76-1.21-.36-1.81s1.21-.76,1.81-.36.76,1.21.36,1.81-1.21.76-1.81.37ZM512.67,275.4l.35-.52c.43-.3,1.01-.33,1.48-.03.6.4.76,1.21.36,1.81s-1.21.76-1.81.36c-.55-.37-.73-1.08-.44-1.66l.06.04Z"/>
              <path class="cls-4" d="M508.94,283.21c-1.06-.7-2.49-.41-3.19.64-.17.25-.27.52-.33.8l-12.23-.62-16.01-10.63c.38-.98.04-2.14-.87-2.74-1.06-.7-2.49-.41-3.19.64-.7,1.06-.41,2.49.64,3.19.91.61,2.11.47,2.87-.26l16.24,10.78,12.57.64c.13.55.46,1.05.96,1.39,1.06.7,2.49.41,3.19-.64s.41-2.49-.64-3.19ZM474.31,273.66c-.6-.4-.76-1.21-.36-1.81s1.21-.76,1.81-.36.76,1.21.36,1.81-1.21.76-1.81.37ZM506.95,286.21c-.6-.4-.76-1.21-.36-1.81s1.21-.76,1.81-.36.76,1.21.36,1.81-1.21.76-1.81.37Z"/>
            </g>
            <circle class="cls-4" cx="420.9" cy="198.18" r="1.28"/>
            <circle class="cls-4" cx="441.19" cy="218.44" r="1.28"/>
            <circle class="cls-4" cx="459.13" cy="217.25" r="1.28"/>
            <circle class="cls-4" cx="476.89" cy="259.38" r="1.28"/>
            <circle class="cls-4" cx="505.52" cy="254.38" r="1.28"/>
            <circle class="cls-4" cx="507.69" cy="285.07" r="1.28"/>
          </g>
          <g class="cls-11">
            <path class="cls-9" d="M518.97,111l-40.13,51.7s-58.21-.72-68.34,0c-13.17-.44-31.29,1.73-49.22,22.78-9.42-22.35-14.78-65.08,40.18-74.48h117.51Z"/>
            <g class="cls-1">
              <path class="cls-4" d="M390.29,140.68c0,1.19.98,2.16,2.18,2.15,1.03,0,1.89-.74,2.1-1.71l26.46-.18,4.7-5.4,13.07-.09,5.91-5.56,5.94-.04,4.14,5.49,17.85-.12c.22.97,1.09,1.69,2.12,1.68,1.19,0,2.16-.99,2.15-2.18,0-1.19-.98-2.16-2.18-2.15-1.03,0-1.89.74-2.1,1.71l-17.37.12-4.14-5.49-6.78.05-5.91,5.56-13.12.09-4.7,5.4-26.03.18c-.22-.97-1.09-1.69-2.12-1.68-1.19,0-2.16.98-2.15,2.18ZM473.51,134.75c0-.68.54-1.23,1.22-1.23s1.23.54,1.23,1.22-.54,1.23-1.22,1.23-1.23-.54-1.23-1.22ZM391.23,140.67c0-.68.54-1.23,1.22-1.23s1.23.54,1.23,1.22-.54,1.23-1.22,1.23-1.23-.54-1.23-1.22Z"/>
              <path class="cls-4" d="M399.68,152.13c0,1.19.98,2.16,2.18,2.15,1.03,0,1.89-.74,2.1-1.71l10.79-.07,3.61-2.94,29.31-.2,3.23,2.9,30.01-.2,4.51-5.46c.26.11.55.17.86.17,1.19,0,2.16-.98,2.15-2.18,0-1.19-.98-2.16-2.18-2.15-1.19,0-2.16.99-2.15,2.18,0,.55.22,1.05.56,1.43l-4.19,5.07-29.21.2-3.23-2.9-30.01.2-3.61,2.94-10.46.07c-.22-.97-1.09-1.69-2.12-1.68-1.19,0-2.16.99-2.15,2.18ZM485.03,144.61c0-.68.54-1.23,1.22-1.23s1.23.54,1.23,1.22-.54,1.23-1.22,1.23-1.23-.54-1.23-1.22ZM400.62,152.12c0-.68.54-1.23,1.22-1.23s1.23.54,1.23,1.22-.54,1.23-1.22,1.23-1.23-.54-1.23-1.22Z"/>
              <path class="cls-4" d="M452.66,142.42c1.19,0,2.16-.99,2.15-2.18s-.98-2.16-2.18-2.15c-1.03,0-1.89.74-2.1,1.71l-21.11.14c-.22-.97-1.09-1.69-2.12-1.68-1.19,0-2.16.98-2.15,2.18s.98,2.16,2.18,2.15c1.03,0,1.89-.74,2.1-1.71l21.11-.14c.22.97,1.09,1.69,2.12,1.68ZM428.55,140.42c0,.68-.54,1.23-1.22,1.23s-1.23-.54-1.23-1.22.54-1.23,1.22-1.23,1.23.54,1.23,1.22ZM452.66,141.48c-.68,0-1.23-.54-1.23-1.22s.54-1.23,1.22-1.23,1.23.54,1.23,1.22-.54,1.23-1.22,1.23Z"/>
              <path class="cls-4" d="M487.93,142.18c1.19,0,2.16-.99,2.15-2.18,0-1.19-.98-2.16-2.18-2.15-1.03,0-1.89.74-2.1,1.71l-23.25.16-4.03,4.92-24.01.16c-.22-.97-1.09-1.69-2.12-1.68-1.19,0-2.16.99-2.15,2.18s.98,2.16,2.18,2.15c1.03,0,1.89-.74,2.1-1.71l24.45-.17,4.03-4.92,22.81-.16c.22.97,1.09,1.69,2.12,1.68ZM433.63,145.27c0,.68-.54,1.23-1.22,1.23s-1.23-.54-1.23-1.22.54-1.23,1.22-1.23,1.23.54,1.23,1.22ZM487.93,141.24c-.68,0-1.23-.54-1.23-1.22s.54-1.23,1.22-1.23,1.23.54,1.23,1.22-.54,1.23-1.22,1.23Z"/>
              <path class="cls-4" d="M374.6,129.9c0,1.19.98,2.16,2.18,2.15,1.03,0,1.89-.74,2.1-1.71l18.15-.12,4.93,5.49,14.78-.1c.22.97,1.09,1.69,2.12,1.68,1.19,0,2.16-.99,2.15-2.18,0-1.19-.98-2.16-2.18-2.15-1.03,0-1.89.74-2.1,1.71l-14.36.1-4.93-5.49-18.57.13c-.22-.97-1.09-1.69-2.12-1.68-1.19,0-2.16.99-2.15,2.18ZM417.62,135.13c0-.68.54-1.23,1.22-1.23s1.23.54,1.23,1.22-.54,1.23-1.22,1.23-1.23-.54-1.23-1.22ZM375.54,129.89c0-.68.54-1.23,1.22-1.23s1.23.54,1.23,1.22-.54,1.23-1.22,1.23-1.23-.54-1.23-1.22Z"/>
              <path class="cls-4" d="M464.77,110.5l9.39,8.11c-.17.31-.27.68-.27,1.06,0,1.19.98,2.16,2.18,2.15,1.19,0,2.16-.99,2.15-2.18s-.99-2.16-2.18-2.15c-.47,0-.9.16-1.25.42l-9.67-8.35-20.08.14-4.86,4.45-15.65.11c-.22-.97-1.09-1.69-2.12-1.68-1.19,0-2.16.98-2.15,2.18,0,1.19.98,2.16,2.18,2.15,1.03,0,1.89-.74,2.1-1.71l16.01-.11,4.86-4.45,19.36-.13ZM423.64,114.73c0,.68-.54,1.23-1.22,1.23s-1.23-.54-1.23-1.22.54-1.23,1.22-1.23,1.23.54,1.23,1.22ZM474.83,119.67c0-.68.54-1.23,1.22-1.23s1.23.54,1.23,1.22-.54,1.23-1.22,1.23-1.23-.54-1.23-1.22Z"/>
              <path class="cls-4" d="M478.76,118.41c1.03,0,1.89-.74,2.1-1.71l10.4-.07c.22.97,1.09,1.69,2.12,1.68,1.19,0,2.16-.99,2.15-2.18s-.98-2.16-2.18-2.15c-1.03,0-1.89.74-2.1,1.71l-10.4.07c-.22-.97-1.09-1.69-2.12-1.68-1.19,0-2.16.98-2.15,2.18s.98,2.16,2.18,2.15ZM492.15,116.16c0-.68.54-1.23,1.22-1.23s1.23.54,1.23,1.22-.54,1.23-1.22,1.23-1.23-.54-1.23-1.22ZM477.53,116.26c0-.68.54-1.23,1.22-1.23s1.23.54,1.23,1.22-.54,1.23-1.22,1.23-1.23-.54-1.23-1.22Z"/>
              <path class="cls-4" d="M485.27,123.46l34.02-.23,3.85-3.42,9.25-.06c.22.97,1.09,1.69,2.12,1.68,1.19,0,2.16-.99,2.15-2.18,0-1.19-.98-2.16-2.18-2.15-1.03,0-1.89.74-2.1,1.71l-9.6.07-3.85,3.42-34.08.23-5.64,6.19-17.76.12c-.22-.97-1.09-1.69-2.12-1.68-1.19,0-2.16.99-2.15,2.18s.98,2.16,2.18,2.15c1.03,0,1.89-.74,2.1-1.71l18.17-.12,5.64-6.19ZM460.58,129.31c0,.68-.54,1.23-1.22,1.23s-1.23-.54-1.23-1.22.54-1.23,1.22-1.23,1.23.54,1.23,1.22ZM533.27,119.27c0-.68.54-1.23,1.22-1.23s1.23.54,1.23,1.22-.54,1.23-1.22,1.23c-.68,0-1.23-.54-1.23-1.22Z"/>
              <path class="cls-4" d="M445.33,122l20.65-.14c.21.98,1.09,1.72,2.13,1.71,1.19,0,2.16-.98,2.15-2.18s-.98-2.16-2.18-2.15c-1.02,0-1.87.72-2.09,1.68l-21.03.14-8.47,7.95-21.53.15c-.22-.97-1.09-1.69-2.12-1.68-1.19,0-2.16.99-2.15,2.18s.98,2.16,2.18,2.15c1.03,0,1.89-.74,2.1-1.71l21.9-.15,8.47-7.95ZM414.08,129.63c0,.68-.54,1.23-1.22,1.23s-1.23-.54-1.23-1.22.54-1.23,1.22-1.23,1.23.54,1.23,1.22ZM466.86,121.41c0-.68.54-1.23,1.22-1.23s1.23.54,1.23,1.22-.54,1.23-1.22,1.23-1.23-.54-1.23-1.22Z"/>
              <path class="cls-4" d="M408.99,122.24l21.14-.14c.21.98,1.09,1.72,2.13,1.71,1.19,0,2.16-.98,2.15-2.18,0-1.19-.98-2.16-2.18-2.15-1.02,0-1.87.72-2.09,1.68l-20.79.14-7.62-6.89-20.59.14c-.22-.97-1.09-1.69-2.12-1.68-1.19,0-2.16.98-2.15,2.18,0,1.19.98,2.16,2.18,2.15,1.03,0,1.89-.74,2.1-1.71l20.23-.14,7.62,6.89ZM380.25,115.03c0,.68-.54,1.23-1.22,1.23s-1.23-.54-1.23-1.22.54-1.23,1.22-1.23,1.23.54,1.23,1.22ZM431.02,121.66c0-.68.54-1.23,1.22-1.23s1.23.54,1.23,1.22-.54,1.23-1.22,1.23-1.23-.54-1.23-1.22Z"/>
              <path class="cls-4" d="M487.35,128.18l16.2-.11c.32.8,1.11,1.37,2.02,1.36,1.19,0,2.16-.99,2.15-2.18s-.98-2.16-2.18-2.15-2.07.9-2.14,2.02l-16.46.11-6.22,6.6c-.32-.18-.68-.28-1.07-.28-1.19,0-2.16.99-2.15,2.18s.98,2.16,2.18,2.15,2.16-.98,2.15-2.18c0-.47-.16-.89-.41-1.25l5.93-6.29ZM480.9,135.72c0,.68-.54,1.23-1.22,1.23s-1.23-.54-1.23-1.22.54-1.23,1.22-1.23,1.23.54,1.23,1.22ZM504.35,127.13c.07-.6.58-1.08,1.2-1.08.68,0,1.23.54,1.23,1.22s-.54,1.23-1.22,1.23c-.52,0-.97-.32-1.15-.78v-.59s-.07,0-.07,0Z"/>
              <path class="cls-4" d="M507.65,116.88c0-1.19-.98-2.16-2.18-2.15-.57,0-1.09.23-1.47.6l-10.22-5.97-18.33.12c-.22-.97-1.09-1.69-2.12-1.68-1.19,0-2.16.99-2.15,2.18s.98,2.16,2.18,2.15c1.03,0,1.89-.74,2.1-1.71l18.07-.12,9.95,5.81c-.1.25-.15.52-.15.8,0,1.19.98,2.16,2.18,2.15s2.16-.98,2.15-2.18ZM474.57,109.97c0,.68-.54,1.23-1.22,1.23s-1.23-.54-1.23-1.22.54-1.23,1.22-1.23,1.23.54,1.23,1.22ZM506.71,116.89c0,.68-.54,1.23-1.22,1.23s-1.23-.54-1.23-1.22.54-1.23,1.22-1.23,1.23.54,1.23,1.22Z"/>
              <path class="cls-4" d="M507.6,109.74c0-1.19-.98-2.16-2.18-2.15-.62,0-1.18.27-1.57.7l-9.64-6.19-20.11.14-4.14-5.18-3.79.03-3.59,5.23-40.64.28-9.03,8.39c-.34-.22-.75-.35-1.19-.35-1.19,0-2.16.98-2.15,2.18s.98,2.16,2.18,2.15c1.19,0,2.16-.99,2.15-2.18,0-.42-.13-.8-.33-1.13l8.74-8.12,40.77-.28,3.59-5.23,2.84-.02,4.14,5.18,20.28-.14,9.44,6.06c-.07.21-.1.44-.1.67,0,1.19.98,2.16,2.18,2.15,1.19,0,2.16-.98,2.15-2.18ZM412.97,112.8c0,.68-.54,1.23-1.22,1.23s-1.23-.54-1.23-1.22.54-1.23,1.22-1.23,1.23.54,1.23,1.22ZM506.67,109.75c0,.68-.54,1.23-1.22,1.23s-1.23-.54-1.23-1.22.54-1.23,1.22-1.23,1.23.54,1.23,1.22Z"/>
              <path class="cls-4" d="M383.39,105.33l-9.84.07-6.78,4.13.08,11.16,7.33,3.51,23.67-.16c.22.97,1.09,1.69,2.12,1.68,1.19,0,2.16-.99,2.15-2.18,0-1.19-.98-2.16-2.18-2.15-1.03,0-1.89.74-2.1,1.71l-23.45.16-6.6-3.17-.07-10.05,6.1-3.72,9.58-.07c.22.97,1.09,1.69,2.12,1.68,1.19,0,2.16-.98,2.15-2.18,0-1.19-.98-2.16-2.18-2.15-1.03,0-1.89.74-2.1,1.71ZM384.28,105.79c0-.68.54-1.23,1.22-1.23s1.23.54,1.23,1.22-.54,1.23-1.22,1.23-1.23-.54-1.23-1.22ZM398.73,123.57c0-.68.54-1.23,1.22-1.23s1.23.54,1.23,1.22-.54,1.23-1.22,1.23-1.23-.54-1.23-1.22Z"/>
            </g>
            <circle class="cls-5" cx="399.97" cy="123.61" r="1.28"/>
            <circle class="cls-5" cx="452.67" cy="140.34" r="1.28"/>
            <circle class="cls-5" cx="422.39" cy="114.76" r="1.28"/>
            <circle class="cls-5" cx="479.65" cy="135.64" r="1.28"/>
          </g>
          <path class="cls-10" d="M387.17,166.43c-12.81,3.6-25.89,19.17-25.89,19.17,0,0,10.31,26.51,38.16,44.62,0,0-35.72-42.43-12.27-63.79Z"/>
          <g class="cls-17">
            <path class="cls-7" d="M374.5,119.65c-14.46,3.62-95.09,58.94-30.37,135.59,30.37,27.12,62.36,37.6,87.5,50.26,12.43,6.15,51.82,30.76,29.69,75.13,39.25-12.24,56.03-78.14-10.09-115.76-36.93-17.88-59.25-24.93-72.76-43.47-8.33-11.44-46.63-50.76-3.96-101.74Z"/>
            <g class="cls-1">
              <path class="cls-4" d="M344.48,279.14c-.94-.62-2.17-.46-2.93.32l-14.13-9.38.04-8.83-11.13-7.39-9.07.62-5.8-3.85c.41-.99.07-2.17-.86-2.78-1.06-.7-2.49-.41-3.19.64s-.41,2.49.64,3.19c.9.6,2.07.47,2.83-.23l6.1,4.05,9.07-.62,10.4,6.9-.04,8.83,14.61,9.7c-.33.96.02,2.07.9,2.66,1.06.7,2.49.41,3.19-.64s.41-2.49-.64-3.19ZM298.62,250.85c-.6-.4-.76-1.21-.36-1.81s1.21-.76,1.81-.36.76,1.21.37,1.81-1.21.76-1.81.36ZM342.49,282.14c-.6-.4-.76-1.21-.36-1.81s1.21-.76,1.81-.36.76,1.21.36,1.81-1.21.76-1.81.37Z"/>
              <path class="cls-4" d="M300.64,247.81c.91.61,2.11.47,2.87-.26l4.84,3.21,9.54-.72,13.42,8.91-.25,6.89,27.38,18.18c-.38.98-.04,2.14.87,2.74,1.06.7,2.49.41,3.19-.64s.41-2.49-.64-3.19c-.91-.61-2.11-.47-2.87.26l-26.92-17.87.25-6.89-14.17-9.41-9.54.72-4.55-3.02c.38-.98.04-2.14-.87-2.74-1.06-.7-2.49-.41-3.19.64-.7,1.06-.41,2.49.64,3.19ZM361.3,283.75c.6.4.76,1.21.36,1.81s-1.21.76-1.81.36-.76-1.21-.36-1.81,1.21-.76,1.81-.37ZM302.63,244.8c.6.4.76,1.21.36,1.81s-1.21.76-1.81.36-.76-1.21-.36-1.81,1.21-.76,1.81-.37Z"/>
              <path class="cls-4" d="M394.12,312.35c.09.63.43,1.23,1,1.61,1.06.7,2.49.41,3.19-.64s.41-2.49-.64-3.19-2.49-.41-3.19.64c-.12.18-.21.38-.28.58l-12.32.33-13.97-9.27-1.83-6.65-14.46-9.6c.38-.98.04-2.14-.87-2.74-1.06-.7-2.49-.41-3.19.64s-.41,2.49.64,3.19c.91.61,2.11.47,2.87-.26l14.15,9.4,1.83,6.65,14.55,9.66,12.52-.34ZM397.12,310.95c.6.4.76,1.21.36,1.81s-1.21.76-1.81.36-.76-1.21-.36-1.81,1.21-.76,1.81-.37ZM348.76,286.41c-.6-.4-.76-1.21-.36-1.81.4-.6,1.21-.76,1.81-.36s.76,1.21.36,1.81-1.21.76-1.81.37Z"/>
              <path class="cls-4" d="M340.28,305.7c-1.06-.7-2.49-.41-3.19.64s-.41,2.49.64,3.19c.92.61,2.13.47,2.89-.28l18.73,12.43,10.79-1.7,17.92,11.9c-.38.98-.04,2.14.87,2.74,1.06.7,2.49.41,3.19-.64s.41-2.49-.64-3.19c-.91-.61-2.11-.47-2.87.26l-18.24-12.11-10.79,1.7-18.42-12.23c.36-.98.02-2.11-.89-2.71ZM338.29,308.7c-.6-.4-.76-1.21-.36-1.81s1.21-.76,1.81-.36.76,1.21.36,1.81-1.21.76-1.81.37ZM390.94,331.62c.6.4.76,1.21.36,1.81s-1.21.76-1.81.37-.76-1.21-.36-1.81,1.21-.76,1.81-.36Z"/>
              <path class="cls-4" d="M364.63,345.78c-.91-.61-2.11-.47-2.87.26l-23.07-15.31-1.04-7.54-11.63-7.72-2.02-8.39-6-3.99-6.88,2.48-15.4-10.22c.38-.98.04-2.14-.87-2.74-1.06-.7-2.49-.41-3.19.64s-.41,2.49.64,3.19c.91.61,2.11.47,2.87-.26l15.81,10.5,6.88-2.48,5.26,3.49,2.02,8.39,11.58,7.69,1.04,7.54,23.44,15.56c-.38.98-.04,2.14.87,2.74,1.06.7,2.49.41,3.19-.64s.41-2.49-.64-3.19ZM292.85,295.62c-.6-.4-.76-1.21-.36-1.81s1.21-.76,1.81-.37.76,1.21.36,1.81-1.21.76-1.81.36ZM362.63,348.78c-.6-.4-.76-1.21-.36-1.81s1.21-.76,1.81-.37.76,1.21.36,1.81-1.21.76-1.81.36Z"/>
              <path class="cls-4" d="M333.73,325.27c-.91-.61-2.11-.47-2.87.26l-18.7-12.41c.38-.98.04-2.14-.87-2.74-1.06-.7-2.49-.41-3.19.64s-.41,2.49.64,3.19c.91.61,2.11.47,2.87-.26l18.7,12.41c-.38.98-.04,2.14.87,2.74,1.06.7,2.49.41,3.19-.64s.41-2.49-.64-3.19ZM309.3,313.38c-.6-.4-.76-1.21-.36-1.81s1.21-.76,1.81-.36.76,1.21.36,1.81-1.21.76-1.81.36ZM331.74,328.28c-.6-.4-.76-1.21-.36-1.81s1.21-.76,1.81-.37.76,1.21.36,1.81-1.21.76-1.81.36Z"/>
              <path class="cls-4" d="M384.87,345.32c-.91-.61-2.11-.47-2.87.26l-16.45-10.92-7.58,2.02-12.72-8.45c.38-.98.04-2.14-.87-2.74-1.06-.7-2.49-.41-3.19.64s-.41,2.49.64,3.19c.91.61,2.11.47,2.87-.26l13.1,8.7,7.58-2.02,16.08,10.67c-.38.98-.04,2.14.87,2.74,1.06.7,2.49.41,3.19-.64s.41-2.49-.64-3.19ZM342.38,328.49c-.6-.4-.76-1.21-.36-1.81s1.21-.76,1.81-.37.76,1.21.36,1.81-1.21.76-1.81.36ZM382.87,348.33c-.6-.4-.76-1.21-.36-1.81s1.21-.76,1.81-.37.76,1.21.36,1.81c-.4.6-1.21.76-1.81.36Z"/>
              <path class="cls-4" d="M316.55,278.76l17.16,11.39,1.74,6.79,14.19,9.42c-.38.98-.04,2.14.87,2.74,1.06.7,2.49.41,3.19-.64s.41-2.49-.64-3.19c-.91-.61-2.11-.47-2.87.26l-13.87-9.21-1.74-6.79-17.79-11.81-13.47,1.8c-.16-.43-.46-.82-.88-1.1-1.06-.7-2.49-.41-3.19.64s-.41,2.49.64,3.19,2.49.41,3.19-.64c.23-.34.35-.72.38-1.1l13.08-1.75ZM352.5,306.1c.6.4.76,1.21.36,1.81s-1.21.76-1.81.37-.76-1.21-.36-1.81,1.21-.76,1.81-.36ZM300.46,281.43c-.6-.4-.76-1.21-.36-1.81s1.21-.76,1.81-.37.76,1.21.36,1.81-1.21.76-1.81.36Z"/>
              <path class="cls-4" d="M302.68,277.01c.7-1.06.41-2.49-.64-3.19-.91-.61-2.11-.47-2.87.26l-9.22-6.12c.38-.98.04-2.14-.87-2.74-1.06-.7-2.49-.41-3.19.64s-.41,2.49.64,3.19c.91.61,2.11.47,2.87-.26l9.22,6.12c-.38.98-.04,2.14.87,2.74,1.06.7,2.49.41,3.19-.64ZM287.08,268.22c-.6-.4-.76-1.21-.36-1.81s1.21-.76,1.81-.37.76,1.21.36,1.81-1.21.76-1.81.36ZM300.04,276.82c-.6-.4-.76-1.21-.36-1.81.4-.6,1.21-.76,1.81-.37s.76,1.21.36,1.81-1.21.76-1.81.36Z"/>
              <path class="cls-4" d="M373.55,239.71c-.91-.61-2.11-.47-2.87.26l-24.69-16.39c.38-.98.04-2.14-.87-2.74-1.06-.7-2.49-.41-3.19.64s-.41,2.49.64,3.19c.91.61,2.11.47,2.87-.26l24.69,16.39c-.38.98-.04,2.14.87,2.74,1.06.7,2.49.41,3.19-.64s.41-2.49-.64-3.19ZM343.13,223.85c-.6-.4-.76-1.21-.36-1.81s1.21-.76,1.81-.36.76,1.21.36,1.81-1.21.76-1.81.37ZM371.55,242.72c-.6-.4-.76-1.21-.36-1.81s1.21-.76,1.81-.36.76,1.21.36,1.81-1.21.76-1.81.37Z"/>
              <path class="cls-4" d="M383.84,269.68c-.91-.61-2.11-.47-2.87.26l-9.49-6.3-.41-4.6-10.34-6.86c.38-.98.04-2.14-.87-2.74-1.06-.7-2.49-.41-3.19.64s-.41,2.49.64,3.19c.91.61,2.11.47,2.87-.26l9.94,6.6.41,4.6,9.89,6.56c-.38.98-.04,2.14.87,2.74,1.06.7,2.49.41,3.19-.64.7-1.06.41-2.49-.64-3.19ZM357.87,252.45c-.6-.4-.76-1.21-.36-1.81s1.21-.76,1.81-.36.76,1.21.36,1.81-1.21.76-1.81.37ZM381.85,272.68c-.6-.4-.76-1.21-.36-1.81s1.21-.76,1.81-.37.76,1.21.36,1.81-1.21.76-1.81.36Z"/>
              <path class="cls-4" d="M308.85,235.44c.94.62,2.18.46,2.93-.33l4.54,3.01,3.12,8.92,14.13,9.38,5.47-1.4,45.7,30.33c-.35.97-.01,2.1.89,2.7,1.06.7,2.49.41,3.19-.64s.41-2.49-.64-3.19c-.93-.62-2.14-.47-2.9.29l-46.05-30.57-5.47,1.4-13.48-8.95-3.12-8.92-4.85-3.22c.33-.96-.02-2.06-.9-2.65-1.06-.7-2.49-.41-3.19.64s-.41,2.49.64,3.19ZM387.62,285.06c.6.4.76,1.21.36,1.81s-1.21.76-1.81.36-.76-1.21-.36-1.81,1.21-.76,1.81-.37ZM310.84,232.44c.6.4.76,1.21.36,1.81s-1.21.76-1.81.36-.76-1.21-.36-1.81,1.21-.76,1.81-.37Z"/>
              <path class="cls-4" d="M350.09,193.44c-1.06-.7-2.49-.41-3.19.64-.17.26-.29.55-.34.84l-10.85,2.08c-.17-.4-.45-.76-.84-1.02-1.06-.7-2.49-.41-3.19.64s-.41,2.49.64,3.19,2.49.41,3.19-.64c.24-.37.36-.78.38-1.19l10.71-2.05c.14.53.46,1.01.95,1.34,1.06.7,2.49.41,3.19-.64s.41-2.49-.64-3.19ZM332.88,198.99c-.6-.4-.76-1.21-.36-1.81s1.21-.76,1.81-.37.76,1.21.36,1.81-1.21.76-1.81.36ZM348.1,196.44c-.6-.4-.76-1.21-.36-1.81s1.21-.76,1.81-.36.76,1.21.36,1.81-1.21.76-1.81.36Z"/>
              <path class="cls-4" d="M346.27,203.56l10.71,7.11c-.38.98-.04,2.14.87,2.74,1.06.7,2.49.41,3.19-.64s.41-2.49-.64-3.19c-.91-.61-2.11-.47-2.87.26l-11.07-7.35-12.14,2.97-7.24-4.8-.55.83,7.6,5.05,12.14-2.97ZM359.84,210.4c.6.4.76,1.21.36,1.81s-1.21.76-1.81.36-.76-1.21-.37-1.81c.4-.6,1.21-.76,1.81-.36Z"/>
              <path class="cls-4" d="M346.58,214.79l31.65,21.01,6.51,21.7.05.17,37.15,24.66c-.38.98-.04,2.14.87,2.74,1.06.7,2.49.41,3.19-.64s.41-2.49-.64-3.19c-.91-.61-2.11-.47-2.87.26l-36.85-24.46-6.51-21.7-.05-.17-32.29-21.44-7.49,1.51-15.2-10.09-.55.83,15.55,10.32,7.49-1.51ZM424.8,282.07c.6.4.76,1.21.36,1.81s-1.21.76-1.81.36-.76-1.21-.36-1.81,1.21-.76,1.81-.37Z"/>
              <path class="cls-4" d="M326.21,215.87l8.8,5.84,1.89,7.42,31.07,20.63c-.41.99-.07,2.17.86,2.79,1.06.7,2.49.41,3.19-.64.7-1.06.41-2.49-.64-3.19-.9-.6-2.07-.47-2.83.23l-30.77-20.43-1.89-7.42-9.46-6.28-9.46,1.83-.35-.23-.55.83.69.45,9.46-1.83ZM370.83,249.54c.6.4.76,1.21.36,1.81s-1.21.76-1.81.36-.76-1.21-.36-1.81,1.21-.76,1.81-.36Z"/>
              <path class="cls-4" d="M322.47,221.49l8.79,5.83,1.21,7.29,17.7,11.75,1.57,12.94,29.8,19.78,17.88-4.78,10.9,7.24c-.26.93.1,1.96.94,2.53,1.06.7,2.49.41,3.19-.64s.41-2.49-.64-3.19c-.98-.65-2.27-.45-3.02.42l-11.19-7.43-17.88,4.78-29.04-19.28-1.57-12.94-17.72-11.76-1.21-7.29-9.48-6.29-9.31,1.6-.35-.23-.55.83.68.45,9.31-1.6ZM413.26,281.07c.6.4.76,1.21.36,1.81s-1.21.76-1.81.37-.76-1.21-.36-1.81,1.21-.76,1.81-.37Z"/>
              <path class="cls-4" d="M341.93,251.71c1.06.7,2.49.41,3.19-.64.7-1.06.41-2.49-.64-3.19-.91-.61-2.11-.47-2.87.26l-31.96-21.22-.55.83,31.96,21.22c-.38.98-.04,2.14.87,2.74ZM343.92,248.71c.6.4.76,1.21.36,1.81s-1.21.76-1.81.36-.76-1.21-.36-1.81c.4-.6,1.21-.76,1.81-.37Z"/>
              <polygon class="cls-4" points="304.49 236.22 304.12 235.24 295.09 248.84 296.13 248.81 304.49 236.22"/>
              <path class="cls-4" d="M365.95,287.8l-2.35-10.42-24.05-15.97c.41-.99.07-2.17-.86-2.78-1.06-.7-2.49-.41-3.19.64s-.41,2.49.64,3.19c.9.6,2.07.47,2.83-.23l23.74,15.76,2.35,10.42,23.09,15.33,12.21-.47c.13.54.46,1.04.96,1.37,1.06.7,2.49.41,3.19-.64s.41-2.49-.64-3.19-2.49-.41-3.19.64c-.17.26-.28.54-.34.82l-11.9.46-22.48-14.93ZM336.7,261.63c-.6-.4-.76-1.21-.36-1.81s1.21-.76,1.81-.37.76,1.21.36,1.81-1.21.76-1.81.36ZM403.31,301.63c.6.4.76,1.21.36,1.81s-1.21.76-1.81.37-.76-1.21-.36-1.81,1.21-.76,1.81-.36Z"/>
              <path class="cls-4" d="M312.9,267.07l6.7-2.2,2.52,1.67.15,6.75,36.12,23.98,3.05,12.32c-.37.17-.71.44-.95.81-.7,1.06-.41,2.49.64,3.19s2.49.41,3.19-.64.41-2.49-.64-3.19c-.39-.26-.83-.38-1.26-.38l-3.15-12.72-36.01-23.91-.15-6.75-3.35-2.23-6.7,2.2-17.81-11.83-3.64-.03-.66.99,4,.03,17.97,11.93ZM363.12,310.59c.6.4.76,1.21.36,1.81s-1.21.76-1.81.36-.76-1.21-.36-1.81,1.21-.76,1.81-.37Z"/>
              <path class="cls-4" d="M307.08,272.48c-.38.98-.04,2.14.87,2.74,1.06.7,2.49.41,3.19-.64s.41-2.49-.64-3.19c-.91-.61-2.11-.47-2.87.26l-16.24-10.78-4.14-.21-.64.97,4.46.23,16.01,10.63ZM309.95,272.22c.6.4.76,1.21.36,1.81s-1.21.76-1.81.37-.76-1.21-.36-1.81,1.21-.76,1.81-.36Z"/>
              <path class="cls-4" d="M292.17,287.15l16.1,10.69c-.38.98-.04,2.14.87,2.74,1.06.7,2.49.41,3.19-.64s.41-2.49-.64-3.19c-.91-.61-2.11-.47-2.87.26l-15.74-10.45-1.41-8.79-10.96-7.27-.55.83,10.59,7.03,1.41,8.79ZM311.14,297.58c.6.4.76,1.21.36,1.81s-1.21.76-1.81.36-.76-1.21-.36-1.81,1.21-.76,1.81-.37Z"/>
              <path class="cls-4" d="M330.07,312.31l19.4,12.88c-.38.98-.04,2.14.87,2.74,1.06.7,2.49.41,3.19-.64s.41-2.49-.64-3.19c-.91-.61-2.11-.47-2.87.26l-19.08-12.66-2.91-12-18.63-12.37c.36-.98.02-2.11-.89-2.71-1.06-.7-2.49-.41-3.19.64s-.41,2.49.64,3.19c.92.61,2.13.47,2.89-.28l18.29,12.14,2.91,12ZM352.34,324.93c.6.4.76,1.21.36,1.81s-1.21.76-1.81.36-.76-1.21-.36-1.81,1.21-.76,1.81-.37ZM306.53,287.62c-.6-.4-.76-1.21-.36-1.81s1.21-.76,1.81-.36.76,1.21.36,1.81-1.21.76-1.81.37Z"/>
              <path class="cls-4" d="M287.77,290.4c-.43.17-.81.46-1.09.87-.7,1.06-.41,2.49.64,3.19s2.49.41,3.19-.64.41-2.49-.64-3.19c-.34-.23-.73-.35-1.11-.38l-1.69-9.5-9.14-6.06-.55.83,8.78,5.83,1.61,9.05ZM289.32,291.46c.6.4.76,1.21.36,1.81s-1.21.76-1.81.37-.76-1.21-.36-1.81,1.21-.76,1.81-.36Z"/>
              <path class="cls-4" d="M400.25,255.82c-.91-.61-2.11-.47-2.87.26l-6.38-4.24-3.43-10.73,4.82-7.26,7.86-.62,13.34-20.1,7.03.23c.07.66.42,1.29,1.02,1.69,1.06.7,2.49.41,3.19-.64s.41-2.49-.64-3.19-2.49-.41-3.19.64c-.11.16-.19.33-.25.5l-7.68-.25-13.38,20.16-7.86.62-5.35,8.06,3.69,11.52,6.67,4.43c-.38.98-.04,2.14.87,2.74,1.06.7,2.49.41,3.19-.64s.41-2.49-.64-3.19ZM423.63,212.05c.6.4.76,1.21.36,1.81s-1.21.76-1.81.36-.76-1.21-.36-1.81c.4-.6,1.21-.76,1.81-.36ZM398.26,258.82c-.6-.4-.76-1.21-.36-1.81s1.21-.76,1.81-.36.76,1.21.36,1.81c-.4.6-1.21.76-1.81.36Z"/>
              <path class="cls-4" d="M407.09,201.35c-1.06-.7-2.49-.41-3.19.64-.64.97-.45,2.26.4,3l-11.22,16.9-8.93,1.52-3.4,5.12c-.98-.38-2.14-.04-2.74.87-.7,1.06-.41,2.49.64,3.19s2.49.41,3.19-.64c.61-.91.47-2.11-.26-2.87l3.16-4.76,8.93-1.52,11.5-17.33c.94.27,1.98-.08,2.55-.94.7-1.06.41-2.49-.64-3.19ZM381.02,231.4c-.4.6-1.21.76-1.81.37s-.76-1.21-.36-1.81c.4-.6,1.21-.76,1.81-.36s.76,1.21.36,1.81ZM405.1,204.35c-.6-.4-.76-1.21-.36-1.81s1.21-.76,1.81-.36.76,1.21.36,1.81-1.21.76-1.81.37Z"/>
              <path class="cls-4" d="M414.48,331.15c-.91-.61-2.11-.47-2.87.26l-13.78-9.15-10.16.32-6.73-4.47c.36-.98.02-2.11-.88-2.71-1.06-.7-2.49-.41-3.19.64s-.41,2.49.64,3.19c.92.61,2.13.47,2.89-.28l6.98,4.63,10.16-.32,13.52,8.97c-.38.98-.04,2.14.87,2.74,1.06.7,2.49.41,3.19-.64.7-1.06.41-2.49-.64-3.19ZM378.07,318.4c-.6-.4-.76-1.21-.36-1.81s1.21-.76,1.81-.37.76,1.21.36,1.81-1.21.76-1.81.36ZM412.48,334.15c-.6-.4-.76-1.21-.36-1.81s1.21-.76,1.81-.36.76,1.21.36,1.81-1.21.76-1.81.36Z"/>
              <path class="cls-4" d="M615.48,480.36c-1.06-.7-2.49-.41-3.19.64-.24.37-.36.78-.38,1.19l-10.71,2.05c-.14-.53-.46-1.01-.95-1.34-1.06-.7-2.49-.41-3.19.64s-.41,2.49.64,3.19,2.49.41,3.19-.64c.17-.26.29-.55.34-.84l10.85-2.08c.17.4.45.76.84,1.02,1.06.7,2.49.41,3.19-.64s.41-2.49-.64-3.19ZM598.26,485.91c-.6-.4-.76-1.21-.36-1.81s1.21-.76,1.81-.36.76,1.21.36,1.81-1.21.76-1.81.36ZM613.49,483.36c-.6-.4-.76-1.21-.36-1.81s1.21-.76,1.81-.36.76,1.21.36,1.81-1.21.76-1.81.37Z"/>
              <path class="cls-4" d="M601.54,476.62l-10.71-7.11c.38-.98.04-2.14-.87-2.74-1.06-.7-2.49-.41-3.19.64s-.41,2.49.64,3.19c.91.61,2.11.47,2.87-.26l11.07,7.35,12.14-2.97,7.24,4.8.55-.83-7.6-5.05-12.14,2.97ZM587.97,469.77c-.6-.4-.76-1.21-.37-1.81s1.21-.76,1.81-.36.76,1.21.36,1.81-1.21.76-1.81.36Z"/>
              <path class="cls-4" d="M394.49,283.32c.91.61,2.11.47,2.87-.26l16.24,10.78,1.75,11.78,16.44,10.92c-.38.98-.04,2.14.87,2.74,1.06.7,2.49.41,3.19-.64s.41-2.49-.64-3.19c-.91-.61-2.11-.47-2.87.26l-16.07-10.67-1.75-11.78-16.6-11.02c.38-.98.04-2.14-.87-2.74-1.06-.7-2.49-.41-3.19.64s-.41,2.49.64,3.19ZM434.65,316.28c.6.4.76,1.21.36,1.81s-1.21.76-1.81.36-.76-1.21-.36-1.81,1.21-.76,1.81-.37ZM396.49,280.32c.6.4.76,1.21.36,1.81s-1.21.76-1.81.36-.76-1.21-.36-1.81,1.21-.76,1.81-.37Z"/>
              <path class="cls-4" d="M406.64,332.04c-1.06-.7-2.49-.41-3.19.64-.61.91-.47,2.11.26,2.87l-7.27,10.96-24.52-16.28c.38-.98.04-2.14-.87-2.74-1.06-.7-2.49-.41-3.19.64s-.41,2.49.64,3.19c.91.61,2.11.47,2.87-.26l25.35,16.83,7.83-11.79c.98.38,2.14.04,2.74-.87.7-1.06.41-2.49-.64-3.19ZM369.05,330.49c-.6-.4-.76-1.21-.36-1.81s1.21-.76,1.81-.36.76,1.21.37,1.81-1.21.76-1.81.36ZM404.64,335.04c-.6-.4-.76-1.21-.37-1.81.4-.6,1.21-.76,1.81-.36s.76,1.21.36,1.81-1.21.76-1.81.36Z"/>
            </g>
            <circle class="cls-4" cx="372.24" cy="241.71" r="1.28"/>
            <circle class="cls-4" cx="398.96" cy="257.66" r="1.28"/>
            <circle class="cls-4" cx="343.17" cy="249.73" r="1.28"/>
            <circle class="cls-4" cx="348.86" cy="195.43" r="1.28"/>
            <circle class="cls-4" cx="343.78" cy="222.75" r="1.28"/>
          </g>
          <path class="cls-10" d="M458.15,326.55l-2.81-2.85s23.43-33.87-4.46-58.48c0,0,27,12.27,38.19,38.91-4.07,5.63-18.14,15.93-30.93,22.42Z"/>
          <g class="cls-13">
            <path class="cls-8" d="M322.02,386.48l39.05-51.34s65.06,1.24,75.84-.63c18.71-3.25,46.75-22.78,52.17-30.37,9.56,19.25,9.97,61.56-25.49,75.74-21.76,8.6-141.57,6.61-141.57,6.61Z"/>
            <g class="cls-1">
              <path class="cls-4" d="M321.86,381.39c1.03,0,1.9-.71,2.12-1.68l5.46.04,7.14-5.47,15.14.1,3.35,5.54,30.9.21c.21.97,1.07,1.7,2.1,1.71,1.19,0,2.17-.96,2.18-2.15s-.96-2.17-2.15-2.18c-1.03,0-1.9.71-2.12,1.68l-30.38-.21-3.35-5.54-15.99-.11-7.14,5.47-5.14-.04c-.21-.97-1.07-1.7-2.1-1.71-1.19,0-2.17.96-2.18,2.15,0,1.19.96,2.17,2.15,2.18ZM388.09,378.45c.68,0,1.22.56,1.22,1.23s-.56,1.22-1.23,1.22-1.22-.56-1.22-1.23.56-1.22,1.23-1.22ZM321.88,378c.68,0,1.22.56,1.22,1.23s-.56,1.22-1.23,1.22-1.22-.56-1.22-1.23.56-1.22,1.23-1.22Z"/>
              <path class="cls-4" d="M372.48,383.48c-1.06,0-1.95.75-2.14,1.76l-15.94-.11-4.51-6.97-12.56-.09-6.82,5.16-6.55-.04c-.19-.99-1.06-1.74-2.11-1.75-1.19,0-2.17.96-2.18,2.15s.96,2.17,2.15,2.18c1.02,0,1.87-.69,2.11-1.64l6.89.05,6.82-5.16,11.74.08,4.51,6.97,16.49.11c.24.93,1.08,1.62,2.08,1.62,1.19,0,2.17-.96,2.18-2.15,0-1.19-.96-2.17-2.15-2.18ZM321.83,384.82c-.68,0-1.22-.56-1.22-1.23s.56-1.22,1.23-1.22,1.22.56,1.22,1.23-.56,1.22-1.23,1.22ZM372.46,386.86c-.68,0-1.22-.56-1.22-1.23s.56-1.22,1.23-1.22,1.22.56,1.22,1.23-.56,1.22-1.23,1.22Z"/>
              <path class="cls-4" d="M415.21,361.91c1.03,0,1.9-.71,2.12-1.68l17.12.12c.21.97,1.07,1.7,2.1,1.71,1.19,0,2.17-.96,2.18-2.15s-.96-2.17-2.15-2.18c-1.03,0-1.9.71-2.12,1.68l-17.12-.12c-.21-.97-1.07-1.7-2.1-1.71-1.19,0-2.17.96-2.18,2.15s.96,2.17,2.15,2.18ZM436.58,358.67c.68,0,1.22.56,1.22,1.23s-.56,1.22-1.23,1.22-1.22-.56-1.22-1.23.56-1.22,1.23-1.22ZM415.24,358.52c.68,0,1.22.56,1.22,1.23s-.56,1.22-1.23,1.22-1.22-.56-1.22-1.23.56-1.22,1.23-1.22Z"/>
              <path class="cls-4" d="M375.07,337.49c-1.03,0-1.9.71-2.12,1.68l-27.86-.19c-.21-.97-1.07-1.7-2.1-1.71-1.19,0-2.17.96-2.18,2.15s.96,2.17,2.15,2.18c1.03,0,1.9-.71,2.12-1.68l27.86.19c.21.97,1.07,1.7,2.1,1.71,1.19,0,2.17-.96,2.18-2.15,0-1.19-.96-2.17-2.15-2.18ZM342.96,340.66c-.68,0-1.22-.56-1.22-1.23s.56-1.22,1.23-1.22,1.22.56,1.22,1.23-.56,1.22-1.23,1.22ZM375.04,340.88c-.68,0-1.22-.56-1.22-1.23s.56-1.22,1.23-1.22,1.22.56,1.22,1.23-.56,1.22-1.23,1.22Z"/>
              <path class="cls-4" d="M398.59,355.78c-1.03,0-1.9.71-2.12,1.68l-10.71-.07-2.69-3.41-11.67-.08c-.21-.97-1.07-1.7-2.1-1.71-1.19,0-2.17.96-2.18,2.15,0,1.19.96,2.17,2.15,2.18,1.03,0,1.9-.71,2.12-1.68l11.22.08,2.69,3.41,11.16.08c.21.97,1.07,1.7,2.1,1.71,1.19,0,2.17-.96,2.18-2.15s-.96-2.17-2.15-2.18ZM369.29,355.58c-.68,0-1.22-.56-1.22-1.23s.56-1.22,1.23-1.22,1.22.56,1.22,1.23-.56,1.22-1.23,1.22ZM398.57,359.17c-.68,0-1.22-.56-1.22-1.23s.56-1.22,1.23-1.22,1.22.56,1.22,1.23-.56,1.22-1.23,1.22Z"/>
              <path class="cls-4" d="M321.95,367.43c1.06,0,1.95-.76,2.14-1.77l5.12.03,7.05,5.41,15.95.11,3.58-3.92,51.57.35c.22.95,1.07,1.66,2.09,1.67,1.19,0,2.17-.96,2.18-2.15s-.96-2.17-2.15-2.18c-1.05,0-1.93.73-2.13,1.72l-51.97-.35-3.58,3.92-15.22-.1-7.05-5.41-5.48-.04c-.24-.93-1.08-1.61-2.08-1.62-1.19,0-2.17.96-2.18,2.15s.96,2.17,2.15,2.18ZM409.48,365.93c.68,0,1.22.56,1.22,1.23s-.56,1.22-1.23,1.22-1.22-.56-1.22-1.23.56-1.22,1.23-1.22ZM321.98,364.04c.68,0,1.22.56,1.22,1.23s-.56,1.22-1.23,1.22-1.22-.56-1.22-1.23.56-1.22,1.23-1.22Z"/>
              <path class="cls-4" d="M341.02,331.76l35.72.24,16.29,13.72.13.11,41.93.29c.21.97,1.07,1.7,2.1,1.71,1.19,0,2.17-.96,2.18-2.15s-.96-2.17-2.15-2.18c-1.03,0-1.9.71-2.12,1.68l-41.59-.28-16.42-13.83-36.44-.25-5.12,5.05-17.16-.12v.94s17.54.12,17.54.12l5.12-5.05ZM437.2,344.44c.68,0,1.22.56,1.22,1.23s-.56,1.22-1.23,1.22-1.22-.56-1.22-1.23.56-1.22,1.23-1.22Z"/>
              <path class="cls-4" d="M325.55,343.09l9.94.07,5.3,4.86,35.07.24c.19.99,1.06,1.74,2.11,1.75,1.19,0,2.17-.96,2.18-2.15s-.96-2.17-2.15-2.18c-1.02,0-1.87.69-2.11,1.64l-34.73-.24-5.3-4.86-10.68-.07-6.5,6.31h-.39s0,.93,0,.93h.77s6.5-6.3,6.5-6.3ZM377.99,346.62c.68,0,1.22.56,1.22,1.23s-.56,1.22-1.23,1.22-1.22-.56-1.22-1.23.56-1.22,1.23-1.22Z"/>
              <path class="cls-4" d="M325.5,349.44l9.92.07,4.71,5.11,19.97.14,7.9,9.37,33.63.23,11.61-12.96,12.3.08c.28.87,1.09,1.5,2.04,1.5,1.19,0,2.17-.96,2.18-2.15s-.96-2.17-2.15-2.18c-1.1,0-2.02.82-2.16,1.88l-12.63-.09-11.61,12.96-32.77-.22-7.9-9.37-20-.14-4.71-5.11-10.7-.07-6.5,6.05h-.4s0,.93,0,.93h.77s6.5-6.05,6.5-6.05ZM427.6,349.59c.68,0,1.22.56,1.22,1.23s-.56,1.22-1.23,1.22-1.22-.56-1.22-1.23.56-1.22,1.23-1.22Z"/>
              <path class="cls-4" d="M356.36,363.2c1.19,0,2.17-.96,2.18-2.15,0-1.19-.96-2.17-2.15-2.18-1.03,0-1.9.71-2.12,1.68l-36.08-.25v.94s36.07.25,36.07.25c.21.97,1.07,1.7,2.1,1.71ZM356.38,359.82c.68,0,1.22.56,1.22,1.23s-.56,1.22-1.23,1.22-1.22-.56-1.22-1.23.56-1.22,1.23-1.22Z"/>
              <polygon class="cls-4" points="318.92 370.29 318.13 369.71 318.03 385.06 318.83 384.49 318.92 370.29"/>
              <path class="cls-4" d="M393.84,379.25l-7.21-6.99-27.15-.19c-.19-.99-1.06-1.74-2.11-1.75-1.19,0-2.17.96-2.18,2.15s.96,2.17,2.15,2.18c1.02,0,1.87-.69,2.11-1.64l26.79.18,7.21,6.99,26.06.18,9.36-6.66c.38.36.89.58,1.46.58,1.19,0,2.17-.96,2.18-2.15s-.96-2.17-2.15-2.18-2.17.96-2.18,2.15c0,.29.05.57.16.82l-9.13,6.49-25.38-.17ZM357.35,373.71c-.68,0-1.22-.56-1.22-1.23s.56-1.22,1.23-1.22,1.22.56,1.22,1.23-.56,1.22-1.23,1.22ZM430.36,370.9c.68,0,1.22.56,1.22,1.23s-.56,1.22-1.23,1.22-1.22-.56-1.22-1.23.56-1.22,1.23-1.22Z"/>
              <path class="cls-4" d="M428.64,384.06c.39.45.97.74,1.62.75,1.19,0,2.17-.96,2.18-2.15s-.96-2.17-2.15-2.18c-1.19,0-2.17.96-2.18,2.15,0,.21.03.41.08.6l-9.52,6.6-15.77-.11-4.86-4.29-16.32-.11c-.21-.97-1.07-1.7-2.1-1.71-1.19,0-2.17.96-2.18,2.15s.96,2.17,2.15,2.18c1.03,0,1.9-.71,2.12-1.68l15.97.11,4.86,4.29,16.42.11,9.68-6.71ZM430.28,381.42c.68,0,1.22.56,1.22,1.23s-.56,1.22-1.23,1.22-1.22-.56-1.22-1.23.56-1.22,1.23-1.22ZM379.6,387c-.68,0-1.22-.56-1.22-1.23s.56-1.22,1.23-1.22,1.22.56,1.22,1.23-.56,1.22-1.23,1.22Z"/>
              <path class="cls-4" d="M341.42,390.24l4.14-5.18,2.84.02,3.59,5.23,40.77.28,8.74,8.12c-.21.33-.33.71-.33,1.13,0,1.19.96,2.17,2.15,2.18,1.19,0,2.17-.96,2.18-2.15s-.96-2.17-2.15-2.18c-.44,0-.85.13-1.19.35l-9.03-8.39-40.64-.28-3.59-5.23-3.79-.03-4.14,5.18-20.11-.14-2.88,1.85v1.12s3.16-2.03,3.16-2.03l20.28.14ZM403.34,398.63c.68,0,1.22.56,1.22,1.23s-.56,1.22-1.23,1.22-1.22-.56-1.22-1.23.56-1.22,1.23-1.22Z"/>
              <path class="cls-4" d="M434.47,340.53c1.19,0,2.17-.96,2.18-2.15s-.96-2.17-2.15-2.18c-1.03,0-1.9.71-2.12,1.68l-11.61-.08.09-13.46,7.43-6.47.12-17.19,10.71.07c.21.97,1.07,1.7,2.1,1.71,1.19,0,2.17-.96,2.18-2.15,0-1.19-.96-2.17-2.15-2.18-1.03,0-1.9.71-2.12,1.68l-11.65-.08-.12,17.7-7.43,6.47-.1,14.82,12.54.09c.21.97,1.07,1.7,2.1,1.71ZM434.5,337.14c.68,0,1.22.56,1.22,1.23s-.56,1.22-1.23,1.22-1.22-.56-1.22-1.23.56-1.22,1.23-1.22ZM441.25,299.07c.68,0,1.22.56,1.22,1.23s-.56,1.22-1.23,1.22-1.22-.56-1.22-1.23.56-1.22,1.23-1.22Z"/>
            </g>
            <circle class="cls-4" cx="398.57" cy="358.05" r="1.28"/>
            <circle class="cls-4" cx="375.07" cy="339.7" r="1.28"/>
            <circle class="cls-4" cx="357.35" cy="372.6" r="1.28"/>
            <circle class="cls-4" cx="379.68" cy="385.98" r="1.28"/>
            <circle class="cls-4" cx="409.44" cy="367.2" r="1.28"/>
          </g>
        </g>
        <g>
          <g>
            <path class="cls-15" d="M220.58,453.88l1.8-3.8c2.54,2.29,6.87,3.95,11.26,3.95,5.9,0,8.44-2.29,8.44-5.27,0-8.34-20.67-3.07-20.67-15.75,0-5.27,4.1-9.75,13.07-9.75,4,0,8.14,1.07,10.97,3.02l-1.61,3.9c-2.97-1.9-6.34-2.78-9.36-2.78-5.8,0-8.29,2.44-8.29,5.41,0,8.34,20.67,3.12,20.67,15.65,0,5.22-4.19,9.7-13.21,9.7-5.22,0-10.34-1.76-13.07-4.29Z"/>
            <path class="cls-15" d="M253.97,423.65h4.88v34.13h-4.88v-34.13Z"/>
            <path class="cls-15" d="M265.97,453.88l1.8-3.8c2.54,2.29,6.88,3.95,11.26,3.95,5.9,0,8.44-2.29,8.44-5.27,0-8.34-20.67-3.07-20.67-15.75,0-5.27,4.1-9.75,13.07-9.75,4,0,8.14,1.07,10.97,3.02l-1.61,3.9c-2.97-1.9-6.34-2.78-9.36-2.78-5.8,0-8.29,2.44-8.29,5.41,0,8.34,20.67,3.12,20.67,15.65,0,5.22-4.19,9.7-13.21,9.7-5.22,0-10.34-1.76-13.07-4.29Z"/>
            <path class="cls-15" d="M305.65,427.89h-11.7v-4.24h28.23v4.24h-11.7v29.89h-4.83v-29.89Z"/>
            <path class="cls-15" d="M352.26,453.54v4.24h-24.77v-34.13h24.09v4.24h-19.21v10.48h17.11v4.14h-17.11v11.02h19.89Z"/>
            <path class="cls-15" d="M391.81,457.78l-.05-24.87-12.34,20.72h-2.24l-12.34-20.58v24.72h-4.68v-34.13h4l14.24,23.99,14.04-23.99h4l.05,34.13h-4.68Z"/>
            <path class="cls-15" d="M428.47,449.25h-18.14l-3.75,8.53h-5.02l15.46-34.13h4.83l15.5,34.13h-5.12l-3.75-8.53ZM426.76,445.35l-7.36-16.72-7.36,16.72h14.72Z"/>
          </g>
          <g>
            <path class="cls-14" d="M491.92,434.36c0,8.85-6.77,14.42-17.42,14.42h-5.52v9.39h-12.89v-38.23h18.41c10.65,0,17.42,5.57,17.42,14.42ZM478.92,434.36c0-2.79-1.69-4.48-5.24-4.48h-4.7v8.96h4.7c3.55,0,5.24-1.69,5.24-4.48Z"/>
            <path class="cls-3" d="M496.12,419.94h12.89v38.23h-12.89v-38.23Z"/>
            <path class="cls-18" d="M515.24,419.94h12.89v28.24h17.26v10h-30.15v-38.23Z"/>
            <path class="cls-18" d="M575.54,451.51h-14.53l-2.57,6.66h-13.11l16.71-38.23h12.67l16.71,38.23h-13.33l-2.57-6.66ZM571.99,442.22l-3.71-9.61-3.71,9.61h7.43Z"/>
          </g>
        </g>
        <g>
          <path class="cls-15" d="M226.94,473.71h-6.27v-1.63h14.42v1.63h-6.27v16.21h-1.89v-16.21Z"/>
          <path class="cls-15" d="M249.45,476.51v13.4h-1.73v-2.45c-.94,1.63-2.68,2.57-4.82,2.57-3.41,0-5.66-1.91-5.66-5.76v-7.77h1.81v7.59c0,2.85,1.48,4.31,4.03,4.31,2.8,0,4.56-1.81,4.56-4.87v-7.03h1.81Z"/>
          <path class="cls-15" d="M259.34,488.39l.82-1.43c1.07.84,2.88,1.5,4.77,1.5,2.55,0,3.59-.87,3.59-2.19,0-3.49-8.69-.74-8.69-6.04,0-2.19,1.89-3.82,5.3-3.82,1.73,0,3.62.48,4.74,1.25l-.79,1.45c-1.17-.82-2.57-1.15-3.95-1.15-2.42,0-3.49.94-3.49,2.22,0,3.62,8.69.89,8.69,6.04,0,2.32-2.04,3.82-5.53,3.82-2.22,0-4.36-.71-5.45-1.66Z"/>
          <path class="cls-15" d="M285.33,483.77h-11.21c.2,2.8,2.34,4.66,5.27,4.66,1.63,0,3.08-.59,4.1-1.76l1.02,1.17c-1.2,1.43-3.06,2.19-5.17,2.19-4.18,0-7.03-2.85-7.03-6.83s2.78-6.8,6.55-6.8,6.5,2.78,6.5,6.8c0,.15-.03.36-.03.56ZM274.12,482.42h9.5c-.23-2.62-2.14-4.46-4.77-4.46s-4.51,1.83-4.74,4.46Z"/>
          <path class="cls-15" d="M301.46,476.51v11.77c0,4.61-2.27,6.7-6.7,6.7-2.45,0-4.84-.74-6.24-2.06l.92-1.38c1.27,1.15,3.21,1.83,5.27,1.83,3.39,0,4.94-1.55,4.94-4.87v-1.71c-1.12,1.71-3.03,2.6-5.22,2.6-3.82,0-6.73-2.68-6.73-6.52s2.91-6.47,6.73-6.47c2.24,0,4.18.92,5.3,2.68v-2.57h1.73ZM299.7,482.88c0-2.91-2.14-4.89-5.1-4.89s-5.07,1.99-5.07,4.89,2.11,4.92,5.07,4.92,5.1-2.01,5.1-4.92Z"/>
          <path class="cls-15" d="M318.61,476.51v13.4h-1.73v-2.45c-.94,1.63-2.68,2.57-4.82,2.57-3.41,0-5.66-1.91-5.66-5.76v-7.77h1.81v7.59c0,2.85,1.48,4.31,4.03,4.31,2.8,0,4.56-1.81,4.56-4.87v-7.03h1.81Z"/>
          <path class="cls-15" d="M330.44,476.41v1.76c-.15,0-.31-.03-.43-.03-2.8,0-4.51,1.78-4.51,4.94v6.83h-1.81v-13.4h1.73v2.62c.84-1.78,2.55-2.73,5.02-2.73Z"/>
          <path class="cls-15" d="M333.29,472.28c0-.69.59-1.27,1.33-1.27s1.33.56,1.33,1.25c0,.74-.56,1.33-1.33,1.33s-1.33-.59-1.33-1.3ZM333.7,476.51h1.81v13.4h-1.81v-13.4Z"/>
          <path class="cls-15" d="M352.79,471.01v18.91h-1.73v-2.65c-1.1,1.81-2.96,2.78-5.17,2.78-3.82,0-6.68-2.78-6.68-6.83s2.85-6.8,6.68-6.8c2.14,0,3.98.92,5.1,2.65v-8.05h1.81ZM351,483.21c0-3.13-2.14-5.22-4.97-5.22s-4.99,2.09-4.99,5.22,2.14,5.22,4.99,5.22,4.97-2.09,4.97-5.22Z"/>
          <path class="cls-15" d="M367.95,481.61v8.31h-1.73v-2.09c-.82,1.38-2.4,2.22-4.61,2.22-3.03,0-4.89-1.58-4.89-3.9,0-2.06,1.33-3.8,5.17-3.8h4.26v-.82c0-2.29-1.3-3.54-3.8-3.54-1.73,0-3.36.61-4.46,1.58l-.82-1.35c1.35-1.15,3.34-1.81,5.45-1.81,3.47,0,5.43,1.73,5.43,5.2ZM366.14,485.89v-2.19h-4.2c-2.6,0-3.44,1.02-3.44,2.4,0,1.55,1.25,2.52,3.39,2.52s3.54-.97,4.26-2.73Z"/>
          <path class="cls-15" d="M385.15,471.01v18.91h-1.73v-2.65c-1.1,1.81-2.96,2.78-5.17,2.78-3.82,0-6.68-2.78-6.68-6.83s2.85-6.8,6.68-6.8c2.14,0,3.98.92,5.1,2.65v-8.05h1.81ZM383.37,483.21c0-3.13-2.14-5.22-4.97-5.22s-4.99,2.09-4.99,5.22,2.14,5.22,4.99,5.22,4.97-2.09,4.97-5.22Z"/>
          <path class="cls-15" d="M395.02,488.39l.82-1.43c1.07.84,2.88,1.5,4.77,1.5,2.55,0,3.59-.87,3.59-2.19,0-3.49-8.69-.74-8.69-6.04,0-2.19,1.89-3.82,5.3-3.82,1.73,0,3.62.48,4.74,1.25l-.79,1.45c-1.17-.82-2.57-1.15-3.95-1.15-2.42,0-3.49.94-3.49,2.22,0,3.62,8.69.89,8.69,6.04,0,2.32-2.04,3.82-5.53,3.82-2.22,0-4.36-.71-5.45-1.66Z"/>
          <path class="cls-15" d="M407.99,483.21c0-3.97,2.91-6.8,6.83-6.8s6.8,2.83,6.8,6.8-2.88,6.83-6.8,6.83-6.83-2.85-6.83-6.83ZM419.79,483.21c0-3.13-2.11-5.22-4.97-5.22s-4.99,2.09-4.99,5.22,2.14,5.22,4.99,5.22,4.97-2.09,4.97-5.22Z"/>
          <path class="cls-15" d="M423.97,483.21c0-4,2.91-6.8,6.91-6.8,2.27,0,4.18.89,5.25,2.65l-1.35.92c-.92-1.35-2.34-1.99-3.9-1.99-2.93,0-5.07,2.09-5.07,5.22s2.14,5.22,5.07,5.22c1.55,0,2.98-.61,3.9-1.96l1.35.92c-1.07,1.73-2.98,2.65-5.25,2.65-4,0-6.91-2.83-6.91-6.83Z"/>
          <path class="cls-15" d="M439.26,472.28c0-.69.59-1.27,1.33-1.27s1.33.56,1.33,1.25c0,.74-.56,1.33-1.33,1.33s-1.33-.59-1.33-1.3ZM439.67,476.51h1.81v13.4h-1.81v-13.4Z"/>
          <path class="cls-15" d="M456.64,481.61v8.31h-1.73v-2.09c-.82,1.38-2.4,2.22-4.61,2.22-3.03,0-4.89-1.58-4.89-3.9,0-2.06,1.33-3.8,5.17-3.8h4.26v-.82c0-2.29-1.3-3.54-3.8-3.54-1.73,0-3.36.61-4.46,1.58l-.82-1.35c1.35-1.15,3.34-1.81,5.45-1.81,3.47,0,5.43,1.73,5.43,5.2ZM454.83,485.89v-2.19h-4.2c-2.6,0-3.44,1.02-3.44,2.4,0,1.55,1.25,2.52,3.39,2.52s3.54-.97,4.26-2.73Z"/>
          <path class="cls-15" d="M461.56,471.01h1.81v18.91h-1.81v-18.91Z"/>
          <path class="cls-15" d="M485.21,481.61v8.31h-1.73v-2.09c-.82,1.38-2.4,2.22-4.61,2.22-3.03,0-4.89-1.58-4.89-3.9,0-2.06,1.33-3.8,5.17-3.8h4.26v-.82c0-2.29-1.3-3.54-3.8-3.54-1.73,0-3.36.61-4.46,1.58l-.82-1.35c1.35-1.15,3.34-1.81,5.45-1.81,3.47,0,5.43,1.73,5.43,5.2ZM483.4,485.89v-2.19h-4.2c-2.6,0-3.44,1.02-3.44,2.4,0,1.55,1.25,2.52,3.39,2.52s3.54-.97,4.26-2.73Z"/>
          <path class="cls-15" d="M508.88,476.51v13.4h-1.73v-2.45c-.94,1.63-2.68,2.57-4.82,2.57-3.41,0-5.66-1.91-5.66-5.76v-7.77h1.81v7.59c0,2.85,1.48,4.31,4.03,4.31,2.8,0,4.56-1.81,4.56-4.87v-7.03h1.81Z"/>
          <path class="cls-15" d="M526.29,482.14v7.77h-1.81v-7.59c0-2.83-1.48-4.28-4.03-4.28-2.88,0-4.69,1.78-4.69,4.84v7.03h-1.81v-13.4h1.73v2.47c.97-1.63,2.78-2.57,5.1-2.57,3.26,0,5.5,1.89,5.5,5.73Z"/>
          <path class="cls-15" d="M536.53,483.21c0-4,2.91-6.8,6.91-6.8,2.27,0,4.18.89,5.25,2.65l-1.35.92c-.92-1.35-2.34-1.99-3.9-1.99-2.93,0-5.07,2.09-5.07,5.22s2.14,5.22,5.07,5.22c1.55,0,2.98-.61,3.9-1.96l1.35.92c-1.07,1.73-2.98,2.65-5.25,2.65-4,0-6.91-2.83-6.91-6.83Z"/>
          <path class="cls-15" d="M552.03,471.01h1.81v18.91h-1.81v-18.91Z"/>
          <path class="cls-15" d="M558.48,472.28c0-.69.59-1.27,1.33-1.27s1.33.56,1.33,1.25c0,.74-.56,1.33-1.33,1.33s-1.33-.59-1.33-1.3ZM558.88,476.51h1.81v13.4h-1.81v-13.4Z"/>
          <path class="cls-15" d="M564.39,483.21c0-4,2.91-6.8,6.91-6.8,2.27,0,4.18.89,5.25,2.65l-1.35.92c-.92-1.35-2.34-1.99-3.9-1.99-2.93,0-5.07,2.09-5.07,5.22s2.14,5.22,5.07,5.22c1.55,0,2.98-.61,3.9-1.96l1.35.92c-1.07,1.73-2.98,2.65-5.25,2.65-4,0-6.91-2.83-6.91-6.83Z"/>
          <path class="cls-15" d="M584.85,483.19l-3.16,2.9v3.82h-1.81v-18.91h1.81v12.82l8-7.31h2.24l-5.73,5.48,6.27,7.92h-2.22l-5.4-6.73Z"/>
        </g>
        <g>
          <polygon class="cls-16" points="607.27 458.73 636.15 481.92 624.22 484.09 631.81 498.6 626.12 501.58 617.98 487.61 609.98 495.48 607.27 458.73"/>
          <g>
            <path class="cls-3" d="M604.5,456.59c-.21-.05-.39-.19-.51-.38l-2.97-5.05c-.23-.4-.1-.91.3-1.14.4-.23.91-.1,1.14.3l2.97,5.05c.23.4.1.91-.3,1.14-.2.12-.43.14-.63.09Z"/>
            <path class="cls-3" d="M609.83,455.23c-.15-.15-.24-.36-.24-.59l.07-5.86c0-.46.38-.83.84-.82.46,0,.83.38.82.84l-.07,5.86c0,.46-.38.83-.84.82-.23,0-.44-.1-.59-.25Z"/>
            <path class="cls-3" d="M595.82,468.1c-.2-.08-.37-.23-.46-.44-.19-.42,0-.91.42-1.1l5.35-2.38c.42-.19.91,0,1.1.42.19.42,0,.91-.42,1.1l-5.35,2.38c-.21.09-.44.09-.64.02Z"/>
            <path class="cls-3" d="M616.96,461.68c-.17-.12-.3-.32-.33-.54-.07-.45.24-.88.69-.96l5.78-.94c.45-.07.88.24.96.69s-.24.88-.69.96l-5.78.94c-.23.04-.45-.02-.62-.15Z"/>
            <path class="cls-3" d="M614.01,457.39c-.33-.32-.34-.85-.03-1.18l4.05-4.23c.32-.33.85-.34,1.18-.03s.34.85.03,1.18l-4.05,4.23c-.32.33-.85.34-1.18.03Z"/>
            <path class="cls-3" d="M601.23,461.33l-5.47-2.1c-.43-.16-.64-.65-.48-1.08s.65-.64,1.08-.48l5.47,2.1c.43.16.64.65.48,1.08s-.65.64-1.08.48Z"/>
          </g>
        </g>
      </g>
    </g>
  </g>
</svg>